#!OML:ASF C:\ViconDB\ViconDB\414\Spring2016\041811\Spring2016.ASF
:FULLY-SPECIFIED
:DEGREES
277
root 5.39919 21.1302 -28.7608 -174.975 -7.51152 178.842
lowerback 6.3036 0.893235 -3.27981
upperback -0.872067 0.972406 0.92757
thorax -4.51545 0.576615 2.70736
lowerneck -15.0965 -2.59232 -12.3985
upperneck 22.8441 -4.79575 13.4635
head 10.3807 -2.14601 6.27641
rclavicle -3.90115e-015 7.15625e-015
rhumerus -6.41044 7.17953 -50.7031
rradius 115.899
rwrist -12.8314
rhand -33.5531 -22.1228
rfingers 7.12502
rthumb -6.74814 -51.9953
lclavicle -3.90115e-015 7.15625e-015
lhumerus -3.31356 -2.7071 37.0958
lradius 95.5537
lwrist 16.9944
lhand -33.2361 16.1389
lfingers 7.12502
lthumb -6.44211 46.0209
rfemur -5.97429 -17.7933 14.7094
rtibia 35.1567
rfoot -25.4019 8.20988
rtoes -12.793
lfemur -7.94807 -0.488425 -13.3344
ltibia 30.3025
lfoot 14.6769 1.77585
ltoes -3.31489
278
root 5.39263 21.201 -28.9897 -175.115 -7.54255 179.168
lowerback 6.42362 0.921584 -2.96054
upperback -0.662457 1.03575 1.0676
thorax -4.3658 0.594869 2.6665
lowerneck -15.0811 -2.8386 -12.7048
upperneck 22.6314 -5.10827 13.7307
head 10.3664 -2.28309 6.38161
rclavicle -1.22998e-014 -2.38542e-015
rhumerus -6.21564 6.52542 -51.1233
rradius 115.271
rwrist -12.7978
rhand -34.0482 -22.7184
rfingers 7.12502
rthumb -7.22606 -52.575
lclavicle -1.22998e-014 -2.38542e-015
lhumerus -2.94125 -2.48969 37.4757
lradius 95.0625
lwrist 16.676
lhand -33.3643 16.247
lfingers 7.12502
lthumb -6.56589 46.1252
rfemur -6.06964 -17.3324 15.2242
rtibia 33.1291
rfoot -24.9578 7.3018
rtoes -12.684
lfemur -8.4507 -0.723894 -12.9483
ltibia 29.3225
lfoot 12.8301 0.927148
ltoes -3.65496
279
root 5.38212 21.2629 -29.218 -175.143 -7.52435 179.259
lowerback 6.49551 0.87717 -3.0125
upperback -0.505412 0.971532 1.14032
thorax -4.24079 0.559642 2.7782
lowerneck -14.9809 -2.9672 -12.9116
upperneck 22.4565 -5.30932 14.0107
head 10.3298 -2.36779 6.48974
rclavicle -6.09275e-014 -8.74653e-015
rhumerus -6.10956 6.13836 -51.7697
rradius 114.662
rwrist -13.1655
rhand -34.3457 -22.9999
rfingers 7.12502
rthumb -7.51321 -52.8465
lclavicle -6.09275e-014 -8.74653e-015
lhumerus -3.06142 -2.32798 37.6849
lradius 94.852
lwrist 16.4936
lhand -33.4848 16.0483
lfingers 7.12502
lthumb -6.68227 45.9229
rfemur -6.36512 -17.0015 15.53
rtibia 31.1829
rfoot -24.5281 6.59283
rtoes -12.428
lfemur -8.98387 -0.90328 -12.8586
ltibia 28.1948
lfoot 10.7996 0.23751
ltoes -4.5376
280
root 5.37251 21.3146 -29.4472 -175.092 -7.50378 179.25
lowerback 6.4402 0.892271 -3.04339
upperback -0.273967 0.987869 1.11952
thorax -3.9703 0.558904 2.77404
lowerneck -15.0414 -3.13496 -13.0355
upperneck 22.3178 -5.557 14.255
head 10.3439 -2.46264 6.56557
rclavicle 2.85256e-014 7.55382e-015
rhumerus -6.11391 5.48772 -52.4033
rradius 113.833
rwrist -12.6286
rhand -34.1245 -22.9976
rfingers 7.12502
rthumb -7.29976 -52.8516
lclavicle 2.85256e-014 7.55382e-015
lhumerus -3.01318 -2.47047 37.8906
lradius 94.8288
lwrist 16.3746
lhand -33.5708 16.0339
lfingers 7.12502
lthumb -6.76524 45.9059
rfemur -6.83803 -16.8456 15.7139
rtibia 29.2902
rfoot -23.9393 6.12305
rtoes -12.9625
lfemur -9.55935 -1.31565 -12.8692
ltibia 26.974
lfoot 8.9261 0.00124964
ltoes -5.4594
281
root 5.36396 21.3538 -29.6719 -175.026 -7.54349 179.421
lowerback 6.66962 0.8868 -2.7914
upperback -0.21658 0.991353 1.1169
thorax -4.03535 0.554421 2.62693
lowerneck -14.9704 -3.294 -13.38
upperneck 22.2382 -5.83859 14.7266
head 10.3735 -2.58244 6.76525
rclavicle 7.8023e-015 -8.34896e-015
rhumerus -6.36631 5.09443 -53.124
rradius 113.033
rwrist -12.1866
rhand -34.2232 -23.1205
rfingers 7.12502
rthumb -7.39506 -52.9713
lclavicle 7.8023e-015 -8.34896e-015
lhumerus -3.27027 -2.83409 38.1838
lradius 94.9452
lwrist 16.4973
lhand -33.5037 15.6143
lfingers 7.12502
lthumb -6.7005 45.4883
rfemur -7.47918 -16.882 16.099
rtibia 27.5914
rfoot -23.7509 5.77605
rtoes -12.7046
lfemur -10.1819 -1.60869 -12.6381
ltibia 25.6216
lfoot 7.51583 0.0530525
ltoes -5.83158
282
root 5.36017 21.3829 -29.8966 -174.943 -7.57677 179.467
lowerback 6.79081 0.896727 -2.73401
upperback -0.0528797 1.00185 1.10301
thorax -3.93287 0.552716 2.57877
lowerneck -14.9153 -3.4763 -13.5522
upperneck 22.0081 -6.10067 14.9909
head 10.3401 -2.68961 6.85096
rclavicle -3.18055e-015 -6.95746e-015
rhumerus -6.55861 4.77088 -53.7797
rradius 112.352
rwrist -12.7332
rhand -34.3324 -22.5723
rfingers 7.12502
rthumb -7.50045 -52.4193
lclavicle -3.18055e-015 -6.95746e-015
lhumerus -3.50827 -3.26257 38.4917
lradius 95.0784
lwrist 16.1577
lhand -33.4377 15.5603
lfingers 7.12502
lthumb -6.63675 45.4363
rfemur -8.25978 -17.1063 16.3906
rtibia 26.0779
rfoot -23.5847 5.53676
rtoes -11.9964
lfemur -10.8019 -2.08258 -12.5012
ltibia 24.1579
lfoot 6.41902 0.515442
ltoes -6.37402
